<svg version="1.1" id="Layer_1" xmlns="http://www.w3.org/2000/svg" xmlns:xlink="http://www.w3.org/1999/xlink" x="0px" y="0px"
	 width="100%" viewBox="660 650 1200 1200" enable-background="new 0 0 2560 2560" xml:space="preserve">
<path fill="white" opacity="1.000000" stroke="none" 
	d="
M1232.000000,2562.000000 
	C821.333313,2562.000000 411.666656,2562.000000 2.000000,2562.000000 
	C2.000000,1708.666626 2.000000,855.333313 2.000000,2.000000 
	C855.333313,2.000000 1708.666626,2.000000 2562.000000,2.000000 
	C2562.000000,855.333313 2562.000000,1708.666626 2562.000000,2562.000000 
	C2119.000000,2562.000000 1676.000000,2562.000000 1232.000000,2562.000000 
M995.772949,996.940491 
	C1000.851929,995.053894 1007.012451,995.814453 1012.074890,990.164917 
	C1008.459778,987.564758 1005.450256,985.122681 1002.182922,983.096252 
	C984.061890,971.857056 965.838684,960.782166 947.734192,949.516479 
	C939.992981,944.699463 939.482361,942.104187 945.588135,935.498169 
	C953.032227,927.444153 960.815613,919.686279 968.716675,912.074829 
	C1012.273804,870.114075 1062.697754,838.737549 1118.944702,817.049683 
	C1184.253540,791.867676 1251.943726,781.997681 1321.936401,787.548218 
	C1389.486450,792.905029 1452.617310,812.279297 1511.778687,844.995605 
	C1552.331665,867.421448 1588.504883,895.564941 1620.389771,929.174683 
	C1650.841309,961.273743 1676.758545,996.625488 1696.530396,1036.331299 
	C1698.311401,1039.907959 1700.128418,1043.475708 1702.132690,1046.929199 
	C1704.060547,1050.250366 1707.027710,1051.345215 1710.676880,1049.954102 
	C1713.163696,1049.006104 1715.604248,1047.923462 1718.017822,1046.798828 
	C1735.533447,1038.637329 1753.054810,1030.487671 1770.535767,1022.252502 
	C1777.768799,1018.845032 1785.002930,1015.417358 1792.061768,1011.669434 
	C1799.306030,1007.822876 1799.865723,1005.673584 1796.600830,997.999573 
	C1796.209839,997.080566 1795.811523,996.153015 1795.302124,995.297668 
	C1781.329712,971.835815 1768.464600,947.616943 1753.098389,925.105286 
	C1729.193970,890.084900 1700.868408,858.746826 1669.567139,829.931030 
	C1624.495972,788.438599 1574.081177,755.363342 1518.447754,730.087463 
	C1424.472534,687.391663 1325.632935,674.059753 1223.634766,684.103333 
	C1147.839844,691.566772 1076.275391,714.144836 1009.678101,751.547119 
	C959.357300,779.808105 914.086975,814.627808 874.474182,856.677185 
	C867.623230,863.949585 861.111755,871.540894 854.307312,878.858215 
	C847.685547,885.979187 846.787842,886.036743 838.144775,881.123230 
	C835.828247,879.806274 833.578674,878.370850 831.308533,876.973206 
	C814.567444,866.666199 797.870056,856.287048 781.053040,846.105530 
	C777.878113,844.183167 774.230103,843.042236 768.640747,840.595276 
	C769.622070,847.082336 769.960754,851.251587 770.905945,855.278503 
	C783.926025,910.750427 797.082336,966.190430 810.080811,1021.667358 
	C813.993713,1038.367554 814.780945,1039.075317 831.588501,1035.173584 
	C885.793518,1022.589905 939.985229,1009.949097 995.772949,996.940491 
M1726.995972,1636.030029 
	C1743.818848,1647.439331 1760.607788,1658.899048 1777.497559,1670.208496 
	C1780.346069,1672.115967 1783.033325,1675.213379 1788.317993,1673.244019 
	C1787.840698,1669.452148 1787.574951,1665.575073 1786.839844,1661.789185 
	C1782.457520,1639.217041 1777.946045,1616.670044 1773.517212,1594.106934 
	C1766.393066,1557.810669 1759.330688,1521.502197 1752.171875,1485.212769 
	C1750.298828,1475.718506 1748.619751,1474.618896 1739.356445,1476.016602 
	C1738.039307,1476.215454 1736.735718,1476.504150 1735.427612,1476.760376 
	C1697.820801,1484.128174 1660.215454,1491.503784 1622.606934,1498.863281 
	C1601.677368,1502.958984 1580.730591,1506.967896 1559.822998,1511.172119 
	C1556.505005,1511.839233 1552.330322,1511.505371 1550.401245,1516.794189 
	C1553.531616,1519.138550 1556.559570,1521.619263 1559.793823,1523.793213 
	C1577.495239,1535.691772 1595.286621,1547.456909 1612.965698,1559.388428 
	C1621.829468,1565.370605 1621.849976,1566.600586 1614.291870,1574.480103 
	C1613.369263,1575.442017 1612.421021,1576.379761 1611.471069,1577.314819 
	C1571.663330,1616.506470 1526.574463,1647.861816 1475.455444,1670.733643 
	C1396.862305,1705.897949 1314.885742,1718.068726 1229.585693,1708.035278 
	C1145.852539,1698.186157 1070.588379,1667.071289 1003.822021,1615.743286 
	C948.283386,1573.046631 904.478394,1520.423584 872.796936,1457.830078 
	C867.620483,1447.602905 865.112305,1446.620972 854.826904,1451.230225 
	C845.098267,1455.589966 835.509583,1460.262451 825.870789,1464.821533 
	C810.508301,1472.087891 795.087341,1479.235596 779.828552,1486.713989 
	C772.755859,1490.180420 772.229065,1492.337769 775.247498,1499.398682 
	C775.770508,1500.622314 776.423889,1501.790527 777.016968,1502.984253 
	C803.640686,1556.572144 838.562195,1604.258423 880.307800,1646.945435 
	C911.642151,1678.986328 946.338379,1707.021362 984.271240,1730.939209 
	C1035.161987,1763.027222 1089.973877,1785.975220 1148.318848,1800.485229 
	C1180.080200,1808.383911 1212.328613,1814.348145 1244.980835,1815.439941 
	C1277.220825,1816.517578 1309.661133,1816.166504 1341.828613,1813.861694 
	C1399.464355,1809.731812 1454.687256,1794.403320 1507.922607,1772.274902 
	C1557.794800,1751.544556 1603.619019,1723.743042 1644.959229,1689.000366 
	C1663.793701,1673.171875 1681.759033,1656.197388 1699.070312,1638.705322 
	C1711.604980,1626.039795 1710.835693,1625.278442 1726.995972,1636.030029 
M1084.135620,1320.666504 
	C1084.129517,1296.361084 1084.148926,1272.055664 1084.106323,1247.750244 
	C1084.086182,1236.266602 1082.185181,1225.210571 1076.262085,1215.129761 
	C1071.271729,1206.636475 1064.134277,1201.075317 1054.355469,1199.231445 
	C1040.503418,1196.619629 1027.189941,1197.675415 1014.804688,1205.134644 
	C1012.142273,1206.738159 1009.249634,1207.959473 1005.357361,1209.911377 
	C1005.357361,1205.964355 1005.340332,1203.719360 1005.360291,1201.474731 
	C1005.487671,1187.164307 1005.868774,1172.850220 1005.659546,1158.544800 
	C1005.542297,1150.524170 1003.303284,1148.401367 995.449341,1148.142700 
	C986.138367,1147.836060 976.798767,1147.829346 967.490662,1148.188110 
	C960.293030,1148.465820 958.345337,1150.562256 957.201965,1157.861572 
	C956.740295,1160.808960 956.564514,1163.829224 956.562439,1166.816406 
	C956.528198,1217.091919 956.530212,1267.367310 956.574219,1317.642822 
	C956.576843,1320.628296 956.775330,1323.651855 957.274780,1326.591064 
	C958.408997,1333.266113 960.280762,1335.191284 967.106262,1335.582886 
	C974.409241,1336.001709 981.749268,1335.850586 989.072632,1335.824585 
	C1005.008240,1335.767944 1005.807068,1334.952881 1005.856506,1318.686401 
	C1005.918274,1298.376709 1005.762085,1278.064697 1006.015625,1257.757690 
	C1006.138000,1247.957153 1012.433716,1241.384399 1021.703918,1240.395874 
	C1029.037842,1239.613770 1034.110718,1243.062622 1035.469727,1250.299561 
	C1036.139038,1253.863403 1036.102539,1257.588867 1036.115234,1261.242188 
	C1036.187134,1281.884888 1036.057251,1302.528931 1036.244995,1323.170288 
	C1036.340942,1333.719482 1038.173218,1335.477783 1048.449097,1335.758789 
	C1055.768677,1335.959106 1063.099731,1335.922119 1070.422119,1335.792603 
	C1082.077026,1335.586548 1083.213989,1334.413940 1084.135620,1320.666504 
M1521.100098,1200.068848 
	C1519.101807,1200.070923 1517.080933,1200.269287 1515.109009,1200.042236 
	C1505.194458,1198.899780 1497.963135,1202.565186 1492.213745,1210.878540 
	C1486.355835,1219.348511 1479.507324,1227.142578 1472.928101,1235.096680 
	C1471.656494,1236.634033 1469.625732,1237.543457 1466.151123,1240.022461 
	C1466.041748,1231.064453 1465.899536,1224.160767 1465.884399,1217.256836 
	C1465.844604,1199.271973 1465.950317,1181.286621 1465.824829,1163.302612 
	C1465.730957,1149.850098 1464.033569,1148.199829 1450.972168,1147.994507 
	C1445.644531,1147.910645 1440.314697,1147.944092 1434.985962,1147.970947 
	C1419.001465,1148.051514 1418.152222,1148.847168 1418.140381,1165.088501 
	C1418.102905,1216.378540 1418.121582,1267.668457 1418.139282,1318.958496 
	C1418.140259,1321.952881 1418.187744,1324.959473 1418.455322,1327.938721 
	C1418.873291,1332.591553 1421.585571,1335.413818 1426.209595,1335.496216 
	C1436.856323,1335.685913 1447.514038,1335.701416 1458.157959,1335.427856 
	C1462.843140,1335.307617 1465.293945,1332.150269 1465.574341,1327.555786 
	C1465.817505,1323.570923 1465.737183,1319.567505 1465.903564,1315.576538 
	C1466.042114,1312.255981 1465.995239,1308.875610 1466.630981,1305.639771 
	C1467.646973,1300.468872 1472.536377,1295.383301 1476.275757,1295.309448 
	C1481.320190,1295.209717 1482.628418,1299.508667 1484.561401,1302.883911 
	C1488.533203,1309.818115 1492.625244,1316.702148 1496.194946,1323.843262 
	C1500.555664,1332.566284 1506.991211,1336.696167 1516.977905,1335.948853 
	C1524.926758,1335.354248 1532.959106,1335.967163 1540.947021,1335.761963 
	C1544.768066,1335.663818 1550.109863,1337.046021 1551.428467,1332.417480 
	C1552.212158,1329.666504 1549.892334,1325.542358 1548.050049,1322.612549 
	C1536.706299,1304.572144 1525.085571,1286.706299 1513.589233,1268.761597 
	C1506.687866,1257.989258 1506.731201,1257.068726 1515.168213,1247.047485 
	C1525.032227,1235.331421 1535.040649,1223.736572 1544.859131,1211.982910 
	C1547.072021,1209.333740 1551.635498,1206.526733 1548.912598,1202.927246 
	C1547.260742,1200.743530 1542.479492,1200.480591 1539.035522,1200.202637 
	C1533.740601,1199.775024 1528.386841,1200.076782 1521.100098,1200.068848 
M818.475708,1244.418091 
	C826.768494,1253.372803 836.624084,1259.881592 848.033752,1264.335571 
	C858.572998,1268.449585 868.929077,1273.065063 879.201172,1277.815796 
	C883.324646,1279.722900 886.181335,1283.167847 885.313538,1288.223022 
	C884.533264,1292.768677 880.966492,1294.588013 877.036865,1295.976929 
	C869.285339,1298.716919 861.759216,1297.211426 854.648682,1294.143311 
	C847.641296,1291.119629 840.932190,1287.358398 834.261841,1283.618164 
	C830.648926,1281.592285 827.422424,1280.784058 824.451965,1284.284058 
	C817.987305,1291.901123 811.365662,1299.406128 805.302490,1307.334961 
	C801.814392,1311.896362 802.531494,1314.643433 806.906250,1318.609619 
	C808.619263,1320.162598 810.613159,1321.439453 812.590576,1322.661743 
	C829.421753,1333.064453 847.738831,1338.641968 867.528809,1338.726440 
	C882.693542,1338.791016 897.422546,1336.589600 910.591309,1328.148438 
	C929.573486,1315.980713 937.565491,1298.461792 935.936523,1276.289795 
	C934.426392,1255.736206 922.935669,1242.705688 904.418457,1235.145630 
	C894.242615,1230.991089 883.975220,1227.056030 873.856262,1222.769165 
	C869.586487,1220.960327 865.257874,1218.954956 861.553162,1216.227661 
	C856.196289,1212.284058 856.418213,1206.652100 862.205139,1203.277466 
	C865.475403,1201.370361 869.690002,1200.364624 873.513062,1200.266602 
	C882.707031,1200.030640 891.117737,1203.088013 899.096008,1207.668457 
	C907.324768,1212.392700 908.974976,1211.963745 915.086426,1204.636230 
	C918.926392,1200.032227 922.652893,1195.328491 926.301025,1190.570557 
	C932.128296,1182.970215 932.168213,1180.260742 924.619995,1175.043457 
	C898.386169,1156.911133 869.960876,1151.991577 840.347229,1164.945679 
	C802.564697,1181.473511 801.193298,1221.413696 818.475708,1244.418091 
M1678.477295,1332.724121 
	C1703.655640,1342.189453 1728.123047,1340.470215 1751.790161,1327.830322 
	C1758.803711,1324.084717 1759.446289,1321.878784 1756.024414,1315.100830 
	C1753.624756,1310.347412 1751.013550,1305.684814 1748.231445,1301.144409 
	C1744.584473,1295.192627 1743.251343,1294.791382 1736.829224,1296.958374 
	C1733.676147,1298.022339 1730.623657,1299.423340 1727.424683,1300.305176 
	C1718.458618,1302.776855 1709.509521,1302.631226 1701.122803,1298.382446 
	C1696.207275,1295.891968 1691.206299,1292.929077 1690.869507,1284.974731 
	C1695.086182,1284.582520 1698.899536,1283.953369 1702.717896,1283.920288 
	C1718.708740,1283.781860 1734.703857,1283.987061 1750.692139,1283.733398 
	C1759.927856,1283.586914 1763.217896,1281.105469 1763.256592,1271.952271 
	C1763.304199,1260.724365 1762.796875,1249.229248 1760.385254,1238.323730 
	C1757.459595,1225.093994 1750.435059,1213.813477 1738.277588,1206.285645 
	C1716.168823,1192.596069 1682.893677,1195.745850 1663.755615,1213.467407 
	C1648.103638,1227.960693 1641.213257,1245.896606 1641.246704,1267.022949 
	C1641.291748,1295.376709 1649.999268,1318.744263 1678.477295,1332.724121 
M1195.263550,1231.686768 
	C1195.395386,1224.368286 1195.894531,1217.032593 1195.551270,1209.736450 
	C1195.236938,1203.054688 1192.895386,1201.002563 1186.289185,1200.312622 
	C1182.983887,1199.967285 1179.622925,1200.189331 1176.303955,1199.935181 
	C1168.433105,1199.332397 1166.554565,1197.449219 1166.052734,1189.437012 
	C1165.782227,1185.118042 1166.046143,1180.765137 1165.763672,1176.447388 
	C1165.272949,1168.942383 1163.394409,1166.738892 1156.227051,1166.381836 
	C1148.916748,1166.017578 1141.571167,1166.271240 1134.243042,1166.385132 
	C1128.814575,1166.469482 1125.532471,1169.405762 1124.491455,1174.647461 
	C1123.648560,1178.890869 1123.107422,1183.194458 1122.444336,1187.473389 
	C1120.599243,1199.381226 1120.640015,1199.569702 1108.698486,1201.999268 
	C1103.243652,1203.109009 1100.388306,1205.899902 1100.319580,1211.387939 
	C1100.244507,1217.382324 1100.218750,1223.382202 1100.392212,1229.373169 
	C1100.521240,1233.834229 1102.720215,1236.585327 1107.262817,1237.962891 
	C1117.351685,1241.022583 1117.569092,1241.416626 1117.764648,1251.665161 
	C1118.000000,1263.991821 1117.312622,1276.385742 1118.392578,1288.630005 
	C1119.170532,1297.448242 1121.425049,1306.339966 1124.401489,1314.707886 
	C1127.898315,1324.539307 1135.402222,1331.393311 1145.247070,1335.042969 
	C1160.835083,1340.821533 1176.710205,1339.340454 1192.519165,1335.953735 
	C1197.772827,1334.828369 1199.305420,1331.097412 1198.273682,1326.084473 
	C1197.266235,1321.188965 1196.345215,1316.273926 1195.236694,1311.401367 
	C1193.044434,1301.765259 1192.182495,1301.077271 1181.919067,1300.044067 
	C1170.787720,1298.923584 1166.443481,1294.707520 1166.089233,1283.530640 
	C1165.730469,1272.211304 1165.784790,1260.867798 1166.043701,1249.543579 
	C1166.253174,1240.378052 1168.170654,1238.725220 1177.516113,1238.209595 
	C1180.176636,1238.062744 1182.845947,1238.082275 1185.511108,1238.016968 
	C1189.343262,1237.922974 1192.822998,1237.135254 1195.263550,1231.686768 
M1307.668823,1216.666382 
	C1284.117798,1237.256470 1281.310181,1275.758545 1293.227661,1301.779175 
	C1301.627808,1320.119629 1315.872559,1332.073853 1335.679199,1336.650269 
	C1350.221191,1340.010254 1364.825562,1339.627686 1379.095215,1334.989380 
	C1383.487915,1333.561523 1387.805298,1331.569580 1391.749878,1329.167114 
	C1399.064331,1324.711914 1399.706177,1321.820679 1395.740601,1314.412109 
	C1393.855469,1310.890381 1391.715698,1307.503906 1389.665771,1304.071411 
	C1383.046387,1292.986328 1381.429565,1291.219238 1369.308960,1296.977905 
	C1358.276123,1302.219727 1349.568604,1299.066040 1342.264526,1289.175781 
	C1334.295288,1278.385132 1333.831909,1259.601929 1341.260132,1248.470581 
	C1347.277344,1239.453735 1356.995483,1235.937500 1367.461792,1239.063354 
	C1369.048462,1239.537231 1370.565186,1240.272705 1372.074341,1240.973511 
	C1375.658691,1242.638062 1378.620117,1241.741089 1380.864136,1238.671265 
	C1385.777954,1231.949097 1390.639648,1225.187012 1395.413940,1218.365112 
	C1397.926880,1214.774292 1397.431274,1211.144653 1393.937866,1208.696167 
	C1390.159058,1206.047607 1386.150513,1203.280151 1381.816895,1201.943115 
	C1355.124268,1193.708252 1330.515747,1197.454224 1307.668823,1216.666382 
M1591.759888,1335.796143 
	C1602.443237,1339.522583 1613.390259,1339.421631 1624.344360,1337.649902 
	C1631.877930,1336.431641 1633.944336,1333.531250 1633.152222,1325.930298 
	C1632.600220,1320.633789 1631.629883,1315.380127 1630.824463,1310.110718 
	C1630.087769,1305.291870 1628.364136,1301.220459 1623.509644,1298.978394 
	C1619.114990,1296.948730 1617.531250,1292.757446 1616.969116,1288.371948 
	C1616.378296,1283.763550 1616.195679,1279.077026 1616.187622,1274.424072 
	C1616.126221,1238.764282 1616.155640,1203.104492 1616.141235,1167.444702 
	C1616.139893,1164.113159 1616.241821,1160.761963 1615.929443,1157.454346 
	C1615.297363,1150.763428 1613.284912,1148.510986 1606.586792,1148.209351 
	C1597.939087,1147.819946 1589.257935,1147.860352 1580.600464,1148.077881 
	C1570.462402,1148.332520 1568.639282,1150.358398 1568.183472,1160.733398 
	C1568.095703,1162.729858 1568.117798,1164.731812 1568.117676,1166.731323 
	C1568.115234,1203.390991 1567.950195,1240.051758 1568.230591,1276.709351 
	C1568.304199,1286.332764 1569.310425,1296.010864 1570.693604,1305.546997 
	C1572.549927,1318.345581 1578.415283,1328.878418 1591.759888,1335.796143 
M1217.825439,1296.998535 
	C1217.872925,1306.650635 1217.674683,1316.312256 1218.050171,1325.951660 
	C1218.321655,1332.922607 1220.369141,1335.243652 1226.972534,1335.526611 
	C1236.936646,1335.953369 1246.944214,1335.934692 1256.910156,1335.532471 
	C1263.155273,1335.280396 1264.934692,1333.087769 1265.633179,1326.820190 
	C1265.926880,1324.184326 1265.859375,1321.501953 1265.860352,1318.840698 
	C1265.873169,1284.889404 1265.875977,1250.938110 1265.854858,1216.986816 
	C1265.852905,1213.994507 1265.811035,1210.988037 1265.527100,1208.013062 
	C1265.086304,1203.394653 1262.406616,1200.516602 1257.782837,1200.427490 
	C1247.142212,1200.222412 1236.490723,1200.211182 1225.851685,1200.463379 
	C1221.248535,1200.572388 1218.577393,1203.522217 1218.179688,1208.137207 
	C1217.894531,1211.446655 1217.847900,1214.784302 1217.844360,1218.109497 
	C1217.817139,1243.739380 1217.826538,1269.369385 1217.825439,1296.998535 
M1216.168701,1157.941162 
	C1216.105957,1160.270386 1215.894287,1162.606812 1216.005493,1164.927734 
	C1216.575195,1176.815186 1222.659058,1183.925903 1233.650879,1185.684692 
	C1249.493164,1188.219482 1260.843506,1183.681274 1265.306763,1173.018677 
	C1265.563354,1172.405762 1265.759644,1171.766602 1265.965088,1171.133545 
	C1270.196167,1158.099854 1264.197021,1144.949951 1252.166748,1140.882812 
	C1235.950928,1135.400513 1221.756470,1141.513062 1216.168701,1157.941162 
z"/>
<path fill="#10172A" class="topArrow" opacity="1.000000"  stroke="none" 
	d="
M994.977539,997.135376 
	C939.985229,1009.949097 885.793518,1022.589905 831.588501,1035.173584 
	C814.780945,1039.075317 813.993713,1038.367554 810.080811,1021.667358 
	C797.082336,966.190430 783.926025,910.750427 770.905945,855.278503 
	C769.960754,851.251587 769.622070,847.082336 768.640747,840.595276 
	C774.230103,843.042236 777.878113,844.183167 781.053040,846.105530 
	C797.870056,856.287048 814.567444,866.666199 831.308533,876.973206 
	C833.578674,878.370850 835.828247,879.806274 838.144775,881.123230 
	C846.787842,886.036743 847.685547,885.979187 854.307312,878.858215 
	C861.111755,871.540894 867.623230,863.949585 874.474182,856.677185 
	C914.086975,814.627808 959.357300,779.808105 1009.678101,751.547119 
	C1076.275391,714.144836 1147.839844,691.566772 1223.634766,684.103333 
	C1325.632935,674.059753 1424.472534,687.391663 1518.447754,730.087463 
	C1574.081177,755.363342 1624.495972,788.438599 1669.567139,829.931030 
	C1700.868408,858.746826 1729.193970,890.084900 1753.098389,925.105286 
	C1768.464600,947.616943 1781.329712,971.835815 1795.302124,995.297668 
	C1795.811523,996.153015 1796.209839,997.080566 1796.600830,997.999573 
	C1799.865723,1005.673584 1799.306030,1007.822876 1792.061768,1011.669434 
	C1785.002930,1015.417358 1777.768799,1018.845032 1770.535767,1022.252502 
	C1753.054810,1030.487671 1735.533447,1038.637329 1718.017822,1046.798828 
	C1715.604248,1047.923462 1713.163696,1049.006104 1710.676880,1049.954102 
	C1707.027710,1051.345215 1704.060547,1050.250366 1702.132690,1046.929199 
	C1700.128418,1043.475708 1698.311401,1039.907959 1696.530396,1036.331299 
	C1676.758545,996.625488 1650.841309,961.273743 1620.389771,929.174683 
	C1588.504883,895.564941 1552.331665,867.421448 1511.778687,844.995605 
	C1452.617310,812.279297 1389.486450,792.905029 1321.936401,787.548218 
	C1251.943726,781.997681 1184.253540,791.867676 1118.944702,817.049683 
	C1062.697754,838.737549 1012.273804,870.114075 968.716675,912.074829 
	C960.815613,919.686279 953.032227,927.444153 945.588135,935.498169 
	C939.482361,942.104187 939.992981,944.699463 947.734192,949.516479 
	C965.838684,960.782166 984.061890,971.857056 1002.182922,983.096252 
	C1005.450256,985.122681 1008.459778,987.564758 1012.074890,990.164917 
	C1007.012451,995.814453 1000.851929,995.053894 994.977539,997.135376 
z"/>
<path fill="#10172A" class="bottomArrow" opacity="1.000000" stroke="none" 
	d="
M1726.399902,1635.634033 
	C1710.835693,1625.278442 1711.604980,1626.039795 1699.070312,1638.705322 
	C1681.759033,1656.197388 1663.793701,1673.171875 1644.959229,1689.000366 
	C1603.619019,1723.743042 1557.794800,1751.544556 1507.922607,1772.274902 
	C1454.687256,1794.403320 1399.464355,1809.731812 1341.828613,1813.861694 
	C1309.661133,1816.166504 1277.220825,1816.517578 1244.980835,1815.439941 
	C1212.328613,1814.348145 1180.080200,1808.383911 1148.318848,1800.485229 
	C1089.973877,1785.975220 1035.161987,1763.027222 984.271240,1730.939209 
	C946.338379,1707.021362 911.642151,1678.986328 880.307800,1646.945435 
	C838.562195,1604.258423 803.640686,1556.572144 777.016968,1502.984253 
	C776.423889,1501.790527 775.770508,1500.622314 775.247498,1499.398682 
	C772.229065,1492.337769 772.755859,1490.180420 779.828552,1486.713989 
	C795.087341,1479.235596 810.508301,1472.087891 825.870789,1464.821533 
	C835.509583,1460.262451 845.098267,1455.589966 854.826904,1451.230225 
	C865.112305,1446.620972 867.620483,1447.602905 872.796936,1457.830078 
	C904.478394,1520.423584 948.283386,1573.046631 1003.822021,1615.743286 
	C1070.588379,1667.071289 1145.852539,1698.186157 1229.585693,1708.035278 
	C1314.885742,1718.068726 1396.862305,1705.897949 1475.455444,1670.733643 
	C1526.574463,1647.861816 1571.663330,1616.506470 1611.471069,1577.314819 
	C1612.421021,1576.379761 1613.369263,1575.442017 1614.291870,1574.480103 
	C1621.849976,1566.600586 1621.829468,1565.370605 1612.965698,1559.388428 
	C1595.286621,1547.456909 1577.495239,1535.691772 1559.793823,1523.793213 
	C1556.559570,1521.619263 1553.531616,1519.138550 1550.401245,1516.794189 
	C1552.330322,1511.505371 1556.505005,1511.839233 1559.822998,1511.172119 
	C1580.730591,1506.967896 1601.677368,1502.958984 1622.606934,1498.863281 
	C1660.215454,1491.503784 1697.820801,1484.128174 1735.427612,1476.760376 
	C1736.735718,1476.504150 1738.039307,1476.215454 1739.356445,1476.016602 
	C1748.619751,1474.618896 1750.298828,1475.718506 1752.171875,1485.212769 
	C1759.330688,1521.502197 1766.393066,1557.810669 1773.517212,1594.106934 
	C1777.946045,1616.670044 1782.457520,1639.217041 1786.839844,1661.789185 
	C1787.574951,1665.575073 1787.840698,1669.452148 1788.317993,1673.244019 
	C1783.033325,1675.213379 1780.346069,1672.115967 1777.497559,1670.208496 
	C1760.607788,1658.899048 1743.818848,1647.439331 1726.399902,1635.634033 
z"/>
<path fill="#101729" class="letterH" opacity="1.000000" stroke="none" 
	d="
M1084.127197,1321.608154 
	C1083.213989,1334.413940 1082.077026,1335.586548 1070.422119,1335.792603 
	C1063.099731,1335.922119 1055.768677,1335.959106 1048.449097,1335.758789 
	C1038.173218,1335.477783 1036.340942,1333.719482 1036.244995,1323.170288 
	C1036.057251,1302.528931 1036.187134,1281.884888 1036.115234,1261.242188 
	C1036.102539,1257.588867 1036.139038,1253.863403 1035.469727,1250.299561 
	C1034.110718,1243.062622 1029.037842,1239.613770 1021.703918,1240.395874 
	C1012.433716,1241.384399 1006.138000,1247.957153 1006.015625,1257.757690 
	C1005.762085,1278.064697 1005.918274,1298.376709 1005.856506,1318.686401 
	C1005.807068,1334.952881 1005.008240,1335.767944 989.072632,1335.824585 
	C981.749268,1335.850586 974.409241,1336.001709 967.106262,1335.582886 
	C960.280762,1335.191284 958.408997,1333.266113 957.274780,1326.591064 
	C956.775330,1323.651855 956.576843,1320.628296 956.574219,1317.642822 
	C956.530212,1267.367310 956.528198,1217.091919 956.562439,1166.816406 
	C956.564514,1163.829224 956.740295,1160.808960 957.201965,1157.861572 
	C958.345337,1150.562256 960.293030,1148.465820 967.490662,1148.188110 
	C976.798767,1147.829346 986.138367,1147.836060 995.449341,1148.142700 
	C1003.303284,1148.401367 1005.542297,1150.524170 1005.659546,1158.544800 
	C1005.868774,1172.850220 1005.487671,1187.164307 1005.360291,1201.474731 
	C1005.340332,1203.719360 1005.357361,1205.964355 1005.357361,1209.911377 
	C1009.249634,1207.959473 1012.142273,1206.738159 1014.804688,1205.134644 
	C1027.189941,1197.675415 1040.503418,1196.619629 1054.355469,1199.231445 
	C1064.134277,1201.075317 1071.271729,1206.636475 1076.262085,1215.129761 
	C1082.185181,1225.210571 1084.086182,1236.266602 1084.106323,1247.750244 
	C1084.148926,1272.055664 1084.129517,1296.361084 1084.127197,1321.608154 
z"/>
<path fill="#101729" class="letterK" opacity="1.000000" stroke="none" 
	d="
M1522.079102,1200.068970 
	C1528.386841,1200.076782 1533.740601,1199.775024 1539.035522,1200.202637 
	C1542.479492,1200.480591 1547.260742,1200.743530 1548.912598,1202.927246 
	C1551.635498,1206.526733 1547.072021,1209.333740 1544.859131,1211.982910 
	C1535.040649,1223.736572 1525.032227,1235.331421 1515.168213,1247.047485 
	C1506.731201,1257.068726 1506.687866,1257.989258 1513.589233,1268.761597 
	C1525.085571,1286.706299 1536.706299,1304.572144 1548.050049,1322.612549 
	C1549.892334,1325.542358 1552.212158,1329.666504 1551.428467,1332.417480 
	C1550.109863,1337.046021 1544.768066,1335.663818 1540.947021,1335.761963 
	C1532.959106,1335.967163 1524.926758,1335.354248 1516.977905,1335.948853 
	C1506.991211,1336.696167 1500.555664,1332.566284 1496.194946,1323.843262 
	C1492.625244,1316.702148 1488.533203,1309.818115 1484.561401,1302.883911 
	C1482.628418,1299.508667 1481.320190,1295.209717 1476.275757,1295.309448 
	C1472.536377,1295.383301 1467.646973,1300.468872 1466.630981,1305.639771 
	C1465.995239,1308.875610 1466.042114,1312.255981 1465.903564,1315.576538 
	C1465.737183,1319.567505 1465.817505,1323.570923 1465.574341,1327.555786 
	C1465.293945,1332.150269 1462.843140,1335.307617 1458.157959,1335.427856 
	C1447.514038,1335.701416 1436.856323,1335.685913 1426.209595,1335.496216 
	C1421.585571,1335.413818 1418.873291,1332.591553 1418.455322,1327.938721 
	C1418.187744,1324.959473 1418.140259,1321.952881 1418.139282,1318.958496 
	C1418.121582,1267.668457 1418.102905,1216.378540 1418.140381,1165.088501 
	C1418.152222,1148.847168 1419.001465,1148.051514 1434.985962,1147.970947 
	C1440.314697,1147.944092 1445.644531,1147.910645 1450.972168,1147.994507 
	C1464.033569,1148.199829 1465.730957,1149.850098 1465.824829,1163.302612 
	C1465.950317,1181.286621 1465.844604,1199.271973 1465.884399,1217.256836 
	C1465.899536,1224.160767 1466.041748,1231.064453 1466.151123,1240.022461 
	C1469.625732,1237.543457 1471.656494,1236.634033 1472.928101,1235.096680 
	C1479.507324,1227.142578 1486.355835,1219.348511 1492.213745,1210.878540 
	C1497.963135,1202.565186 1505.194458,1198.899780 1515.109009,1200.042236 
	C1517.080933,1200.269287 1519.101807,1200.070923 1522.079102,1200.068970 
z"/>
<path fill="#101729" class="letterS" opacity="1.000000" stroke="none" 
	d="
M818.020752,1243.854736 
	C801.193298,1221.413696 802.564697,1181.473511 840.347229,1164.945679 
	C869.960876,1151.991577 898.386169,1156.911133 924.619995,1175.043457 
	C932.168213,1180.260742 932.128296,1182.970215 926.301025,1190.570557 
	C922.652893,1195.328491 918.926392,1200.032227 915.086426,1204.636230 
	C908.974976,1211.963745 907.324768,1212.392700 899.096008,1207.668457 
	C891.117737,1203.088013 882.707031,1200.030640 873.513062,1200.266602 
	C869.690002,1200.364624 865.475403,1201.370361 862.205139,1203.277466 
	C856.418213,1206.652100 856.196289,1212.284058 861.553162,1216.227661 
	C865.257874,1218.954956 869.586487,1220.960327 873.856262,1222.769165 
	C883.975220,1227.056030 894.242615,1230.991089 904.418457,1235.145630 
	C922.935669,1242.705688 934.426392,1255.736206 935.936523,1276.289795 
	C937.565491,1298.461792 929.573486,1315.980713 910.591309,1328.148438 
	C897.422546,1336.589600 882.693542,1338.791016 867.528809,1338.726440 
	C847.738831,1338.641968 829.421753,1333.064453 812.590576,1322.661743 
	C810.613159,1321.439453 808.619263,1320.162598 806.906250,1318.609619 
	C802.531494,1314.643433 801.814392,1311.896362 805.302490,1307.334961 
	C811.365662,1299.406128 817.987305,1291.901123 824.451965,1284.284058 
	C827.422424,1280.784058 830.648926,1281.592285 834.261841,1283.618164 
	C840.932190,1287.358398 847.641296,1291.119629 854.648682,1294.143311 
	C861.759216,1297.211426 869.285339,1298.716919 877.036865,1295.976929 
	C880.966492,1294.588013 884.533264,1292.768677 885.313538,1288.223022 
	C886.181335,1283.167847 883.324646,1279.722900 879.201172,1277.815796 
	C868.929077,1273.065063 858.572998,1268.449585 848.033752,1264.335571 
	C836.624084,1259.881592 826.768494,1253.372803 818.020752,1243.854736 
z"/>
<path fill="#101729" class="letterE" opacity="1.000000" stroke="none" 
	d="
M1677.780518,1332.414795 
	C1649.999268,1318.744263 1641.291748,1295.376709 1641.246704,1267.022949 
	C1641.213257,1245.896606 1648.103638,1227.960693 1663.755615,1213.467407 
	C1682.893677,1195.745850 1716.168823,1192.596069 1738.277588,1206.285645 
	C1750.435059,1213.813477 1757.459595,1225.093994 1760.385254,1238.323730 
	C1762.796875,1249.229248 1763.304199,1260.724365 1763.256592,1271.952271 
	C1763.217896,1281.105469 1759.927856,1283.586914 1750.692139,1283.733398 
	C1734.703857,1283.987061 1718.708740,1283.781860 1702.717896,1283.920288 
	C1698.899536,1283.953369 1695.086182,1284.582520 1690.869507,1284.974731 
	C1691.206299,1292.929077 1696.207275,1295.891968 1701.122803,1298.382446 
	C1709.509521,1302.631226 1718.458618,1302.776855 1727.424683,1300.305176 
	C1730.623657,1299.423340 1733.676147,1298.022339 1736.829224,1296.958374 
	C1743.251343,1294.791382 1744.584473,1295.192627 1748.231445,1301.144409 
	C1751.013550,1305.684814 1753.624756,1310.347412 1756.024414,1315.100830 
	C1759.446289,1321.878784 1758.803711,1324.084717 1751.790161,1327.830322 
	C1728.123047,1340.470215 1703.655640,1342.189453 1677.780518,1332.414795 
M1721.602905,1248.602173 
	C1720.340820,1240.147827 1716.507446,1236.146606 1708.736694,1235.172241 
	C1701.344604,1234.245361 1692.705688,1238.564941 1690.366699,1244.349243 
	C1688.959595,1247.829102 1690.047119,1250.808838 1693.633911,1251.098267 
	C1702.728760,1251.832153 1711.984009,1253.704468 1721.602905,1248.602173 
z"/>
<path fill="#101729" class="letterT" opacity="1.000000" stroke="none" 
	d="
M1194.995850,1232.485718 
	C1192.822998,1237.135254 1189.343262,1237.922974 1185.511108,1238.016968 
	C1182.845947,1238.082275 1180.176636,1238.062744 1177.516113,1238.209595 
	C1168.170654,1238.725220 1166.253174,1240.378052 1166.043701,1249.543579 
	C1165.784790,1260.867798 1165.730469,1272.211304 1166.089233,1283.530640 
	C1166.443481,1294.707520 1170.787720,1298.923584 1181.919067,1300.044067 
	C1192.182495,1301.077271 1193.044434,1301.765259 1195.236694,1311.401367 
	C1196.345215,1316.273926 1197.266235,1321.188965 1198.273682,1326.084473 
	C1199.305420,1331.097412 1197.772827,1334.828369 1192.519165,1335.953735 
	C1176.710205,1339.340454 1160.835083,1340.821533 1145.247070,1335.042969 
	C1135.402222,1331.393311 1127.898315,1324.539307 1124.401489,1314.707886 
	C1121.425049,1306.339966 1119.170532,1297.448242 1118.392578,1288.630005 
	C1117.312622,1276.385742 1118.000000,1263.991821 1117.764648,1251.665161 
	C1117.569092,1241.416626 1117.351685,1241.022583 1107.262817,1237.962891 
	C1102.720215,1236.585327 1100.521240,1233.834229 1100.392212,1229.373169 
	C1100.218750,1223.382202 1100.244507,1217.382324 1100.319580,1211.387939 
	C1100.388306,1205.899902 1103.243652,1203.109009 1108.698486,1201.999268 
	C1120.640015,1199.569702 1120.599243,1199.381226 1122.444336,1187.473389 
	C1123.107422,1183.194458 1123.648560,1178.890869 1124.491455,1174.647461 
	C1125.532471,1169.405762 1128.814575,1166.469482 1134.243042,1166.385132 
	C1141.571167,1166.271240 1148.916748,1166.017578 1156.227051,1166.381836 
	C1163.394409,1166.738892 1165.272949,1168.942383 1165.763672,1176.447388 
	C1166.046143,1180.765137 1165.782227,1185.118042 1166.052734,1189.437012 
	C1166.554565,1197.449219 1168.433105,1199.332397 1176.303955,1199.935181 
	C1179.622925,1200.189331 1182.983887,1199.967285 1186.289185,1200.312622 
	C1192.895386,1201.002563 1195.236938,1203.054688 1195.551270,1209.736450 
	C1195.894531,1217.032593 1195.395386,1224.368286 1194.995850,1232.485718 
z"/>
<path fill="#101729" class= "letterC"  opacity="1.000000" stroke="none" 
	d="
M1308.200684,1216.192139 
	C1330.515747,1197.454224 1355.124268,1193.708252 1381.816895,1201.943115 
	C1386.150513,1203.280151 1390.159058,1206.047607 1393.937866,1208.696167 
	C1397.431274,1211.144653 1397.926880,1214.774292 1395.413940,1218.365112 
	C1390.639648,1225.187012 1385.777954,1231.949097 1380.864136,1238.671265 
	C1378.620117,1241.741089 1375.658691,1242.638062 1372.074341,1240.973511 
	C1370.565186,1240.272705 1369.048462,1239.537231 1367.461792,1239.063354 
	C1356.995483,1235.937500 1347.277344,1239.453735 1341.260132,1248.470581 
	C1333.831909,1259.601929 1334.295288,1278.385132 1342.264526,1289.175781 
	C1349.568604,1299.066040 1358.276123,1302.219727 1369.308960,1296.977905 
	C1381.429565,1291.219238 1383.046387,1292.986328 1389.665771,1304.071411 
	C1391.715698,1307.503906 1393.855469,1310.890381 1395.740601,1314.412109 
	C1399.706177,1321.820679 1399.064331,1324.711914 1391.749878,1329.167114 
	C1387.805298,1331.569580 1383.487915,1333.561523 1379.095215,1334.989380 
	C1364.825562,1339.627686 1350.221191,1340.010254 1335.679199,1336.650269 
	C1315.872559,1332.073853 1301.627808,1320.119629 1293.227661,1301.779175 
	C1281.310181,1275.758545 1284.117798,1237.256470 1308.200684,1216.192139 
z"/>
<path fill="#101729" class="letterL" opacity="1.000000" stroke="none" 
	d="
M1591.053101,1335.492676 
	C1578.415283,1328.878418 1572.549927,1318.345581 1570.693604,1305.546997 
	C1569.310425,1296.010864 1568.304199,1286.332764 1568.230591,1276.709351 
	C1567.950195,1240.051758 1568.115234,1203.390991 1568.117676,1166.731323 
	C1568.117798,1164.731812 1568.095703,1162.729858 1568.183472,1160.733398 
	C1568.639282,1150.358398 1570.462402,1148.332520 1580.600464,1148.077881 
	C1589.257935,1147.860352 1597.939087,1147.819946 1606.586792,1148.209351 
	C1613.284912,1148.510986 1615.297363,1150.763428 1615.929443,1157.454346 
	C1616.241821,1160.761963 1616.139893,1164.113159 1616.141235,1167.444702 
	C1616.155640,1203.104492 1616.126221,1238.764282 1616.187622,1274.424072 
	C1616.195679,1279.077026 1616.378296,1283.763550 1616.969116,1288.371948 
	C1617.531250,1292.757446 1619.114990,1296.948730 1623.509644,1298.978394 
	C1628.364136,1301.220459 1630.087769,1305.291870 1630.824463,1310.110718 
	C1631.629883,1315.380127 1632.600220,1320.633789 1633.152222,1325.930298 
	C1633.944336,1333.531250 1631.877930,1336.431641 1624.344360,1337.649902 
	C1613.390259,1339.421631 1602.443237,1339.522583 1591.053101,1335.492676 
z"/>
<path fill="#101729" class="bottomI" opacity="1.000000" stroke="none" 
	d="
M1217.824951,1295.998901 
	C1217.826538,1269.369385 1217.817139,1243.739380 1217.844360,1218.109497 
	C1217.847900,1214.784302 1217.894531,1211.446655 1218.179688,1208.137207 
	C1218.577393,1203.522217 1221.248535,1200.572388 1225.851685,1200.463379 
	C1236.490723,1200.211182 1247.142212,1200.222412 1257.782837,1200.427490 
	C1262.406616,1200.516602 1265.086304,1203.394653 1265.527100,1208.013062 
	C1265.811035,1210.988037 1265.852905,1213.994507 1265.854858,1216.986816 
	C1265.875977,1250.938110 1265.873169,1284.889404 1265.860352,1318.840698 
	C1265.859375,1321.501953 1265.926880,1324.184326 1265.633179,1326.820190 
	C1264.934692,1333.087769 1263.155273,1335.280396 1256.910156,1335.532471 
	C1246.944214,1335.934692 1236.936646,1335.953369 1226.972534,1335.526611 
	C1220.369141,1335.243652 1218.321655,1332.922607 1218.050171,1325.951660 
	C1217.674683,1316.312256 1217.872925,1306.650635 1217.824951,1295.998901 
z"/>
<path fill="#101729" class="topI" opacity="1.000000" stroke="none" 
	d="
M1216.281738,1157.114136 
	C1221.756470,1141.513062 1235.950928,1135.400513 1252.166748,1140.882812 
	C1264.197021,1144.949951 1270.196167,1158.099854 1265.965088,1171.133545 
	C1265.759644,1171.766602 1265.563354,1172.405762 1265.306763,1173.018677 
	C1260.843506,1183.681274 1249.493164,1188.219482 1233.650879,1185.684692 
	C1222.659058,1183.925903 1216.575195,1176.815186 1216.005493,1164.927734 
	C1215.894287,1162.606812 1216.105957,1160.270386 1216.281738,1157.114136 
z"/>
<path fill="white" class="middleE" opacity="1.000000" stroke="none" 
	d="
M1721.237305,1249.156372 
	C1711.984009,1253.704468 1702.728760,1251.832153 1693.633911,1251.098267 
	C1690.047119,1250.808838 1688.959595,1247.829102 1690.366699,1244.349243 
	C1692.705688,1238.564941 1701.344604,1234.245361 1708.736694,1235.172241 
	C1716.507446,1236.146606 1720.340820,1240.147827 1721.237305,1249.156372 
z"/>
</svg>