<?xml version="1.0" encoding="UTF-8"?>
<svg class="sun-icon" xmlns="http://www.w3.org/2000/svg" xmlns:xlink="http://www.w3.org/1999/xlink" viewBox="0 0 150 150" width="150px" height="150px">
<g id="surface127941931">
<path style=" stroke:none;fill-rule:nonzero;fill:rgb(100%,100%,100%);fill-opacity:1;" d="M 74.71875 11.90625 C 74.589844 11.929688 74.460938 11.964844 74.34375 12 C 72.949219 12.316406 71.964844 13.570312 72 15 L 72 33 C 71.988281 34.078125 72.550781 35.085938 73.488281 35.636719 C 74.425781 36.175781 75.574219 36.175781 76.511719 35.636719 C 77.449219 35.085938 78.011719 34.078125 78 33 L 78 15 C 78.035156 14.132812 77.683594 13.300781 77.0625 12.714844 C 76.429688 12.117188 75.574219 11.824219 74.71875 11.90625 Z M 31.96875 29.53125 C 30.84375 29.730469 29.941406 30.550781 29.625 31.640625 C 29.308594 32.742188 29.636719 33.914062 30.46875 34.6875 L 43.21875 47.4375 C 43.945312 48.328125 45.105469 48.738281 46.230469 48.480469 C 47.34375 48.222656 48.222656 47.34375 48.480469 46.230469 C 48.738281 45.105469 48.328125 43.945312 47.4375 43.21875 L 34.6875 30.46875 C 34.066406 29.800781 33.164062 29.460938 32.25 29.53125 C 32.15625 29.53125 32.0625 29.53125 31.96875 29.53125 Z M 117.09375 29.53125 C 116.414062 29.625 115.78125 29.964844 115.3125 30.46875 L 102.5625 43.21875 C 101.671875 43.945312 101.261719 45.105469 101.519531 46.230469 C 101.777344 47.34375 102.65625 48.222656 103.769531 48.480469 C 104.894531 48.738281 106.054688 48.328125 106.78125 47.4375 L 119.53125 34.6875 C 120.46875 33.796875 120.738281 32.402344 120.1875 31.230469 C 119.625 30.046875 118.382812 29.367188 117.09375 29.53125 Z M 74.71875 45 C 74.625 45.023438 74.53125 45.058594 74.4375 45.09375 C 74.25 45.105469 74.0625 45.140625 73.875 45.1875 C 73.839844 45.222656 73.816406 45.246094 73.78125 45.28125 C 57.867188 45.960938 45 58.921875 45 75 C 45 91.511719 58.488281 105 75 105 C 91.511719 105 105 91.511719 105 75 C 105 58.980469 92.238281 46.066406 76.40625 45.28125 C 76.300781 45.28125 76.230469 45.1875 76.125 45.1875 C 75.820312 45.070312 75.503906 45.011719 75.1875 45 C 75.128906 45 75.058594 45 75 45 C 74.90625 45 74.8125 45 74.71875 45 Z M 74.8125 51 C 74.871094 51 74.941406 51 75 51 C 75.09375 51 75.1875 51 75.28125 51 C 88.40625 51.152344 99 61.839844 99 75 C 99 88.265625 88.265625 99 75 99 C 61.746094 99 51 88.265625 51 75 C 51 61.804688 61.640625 51.105469 74.8125 51 Z M 14.15625 72 C 12.503906 72.234375 11.34375 73.769531 11.578125 75.421875 C 11.8125 77.074219 13.347656 78.234375 15 78 L 33 78 C 34.078125 78.011719 35.085938 77.449219 35.636719 76.511719 C 36.175781 75.574219 36.175781 74.425781 35.636719 73.488281 C 35.085938 72.550781 34.078125 71.988281 33 72 L 15 72 C 14.90625 72 14.8125 72 14.71875 72 C 14.625 72 14.53125 72 14.4375 72 C 14.34375 72 14.25 72 14.15625 72 Z M 116.15625 72 C 114.503906 72.234375 113.34375 73.769531 113.578125 75.421875 C 113.8125 77.074219 115.347656 78.234375 117 78 L 135 78 C 136.078125 78.011719 137.085938 77.449219 137.636719 76.511719 C 138.175781 75.574219 138.175781 74.425781 137.636719 73.488281 C 137.085938 72.550781 136.078125 71.988281 135 72 L 117 72 C 116.90625 72 116.8125 72 116.71875 72 C 116.625 72 116.53125 72 116.4375 72 C 116.34375 72 116.25 72 116.15625 72 Z M 45 101.625 C 44.320312 101.71875 43.6875 102.058594 43.21875 102.5625 L 30.46875 115.3125 C 29.578125 116.039062 29.167969 117.199219 29.425781 118.324219 C 29.683594 119.4375 30.5625 120.316406 31.675781 120.574219 C 32.800781 120.832031 33.960938 120.421875 34.6875 119.53125 L 47.4375 106.78125 C 48.328125 105.925781 48.597656 104.601562 48.117188 103.464844 C 47.648438 102.328125 46.511719 101.601562 45.28125 101.625 C 45.1875 101.625 45.09375 101.625 45 101.625 Z M 104.0625 101.625 C 102.9375 101.824219 102.035156 102.644531 101.71875 103.734375 C 101.402344 104.835938 101.730469 106.007812 102.5625 106.78125 L 115.3125 119.53125 C 116.039062 120.421875 117.199219 120.832031 118.324219 120.574219 C 119.4375 120.316406 120.316406 119.4375 120.574219 118.324219 C 120.832031 117.199219 120.421875 116.039062 119.53125 115.3125 L 106.78125 102.5625 C 106.21875 101.964844 105.445312 101.636719 104.625 101.625 C 104.53125 101.625 104.4375 101.625 104.34375 101.625 C 104.25 101.625 104.15625 101.625 104.0625 101.625 Z M 74.71875 113.90625 C 74.589844 113.929688 74.460938 113.964844 74.34375 114 C 72.949219 114.316406 71.964844 115.570312 72 117 L 72 135 C 71.988281 136.078125 72.550781 137.085938 73.488281 137.636719 C 74.425781 138.175781 75.574219 138.175781 76.511719 137.636719 C 77.449219 137.085938 78.011719 136.078125 78 135 L 78 117 C 78.035156 116.132812 77.683594 115.300781 77.0625 114.714844 C 76.429688 114.117188 75.574219 113.824219 74.71875 113.90625 Z M 74.71875 113.90625 "/>
</g>
</svg>
