<svg version="1.1" id="Layer_1" xmlns="http://www.w3.org/2000/svg" xmlns:xlink="http://www.w3.org/1999/xlink" x="0px" y="0px"
	 width="100%" viewBox="-10 0 346 300" enable-background="new 0 0 346 314" xml:space="preserve">
<path fill="#10172a" opacity="1.000000" stroke="none" 
	d="
M208.000000,315.000000 
	C138.666672,315.000000 69.833359,315.000000 1.000028,315.000000 
	C1.000018,210.333359 1.000018,105.666725 1.000009,1.000070 
	C116.333282,1.000046 231.666565,1.000046 346.999878,1.000023 
	C346.999939,105.666595 346.999939,210.333191 346.999969,314.999878 
	C300.833344,315.000000 254.666672,315.000000 208.000000,315.000000 
M196.558945,214.096481 
	C218.154343,197.381317 219.554077,165.140305 199.018646,149.318680 
	C193.288635,144.903976 186.539474,141.770935 180.122849,138.299454 
	C172.974960,134.432358 165.577896,131.020844 158.479919,127.068665 
	C155.116531,125.195908 152.365753,121.744278 154.294617,117.989754 
	C155.660873,115.330360 159.095108,112.484810 161.931671,112.095863 
	C167.407852,111.345001 173.281738,111.505867 178.684967,112.687263 
	C186.400284,114.374161 193.840790,117.317947 201.805756,119.854584 
	C205.615768,110.237503 209.503189,100.425011 213.520187,90.285446 
	C190.865280,80.415627 167.990143,76.395546 144.243744,83.454590 
	C129.580856,87.813385 119.048492,97.139595 116.130043,112.806465 
	C113.250374,128.265137 116.104912,142.567444 128.843201,152.985596 
	C134.682632,157.761444 141.700119,161.169006 148.396301,164.804886 
	C155.101013,168.445358 162.166168,171.420044 168.888596,175.030548 
	C172.773376,177.117020 175.230820,180.440872 174.237259,185.293869 
	C173.289719,189.922119 169.616394,191.485870 165.712479,192.705322 
	C164.778748,192.996994 163.716324,193.146759 162.752823,193.030991 
	C153.569305,191.927612 144.262207,191.360672 135.259476,189.403198 
	C128.275406,187.884628 121.674545,184.603729 114.397873,181.919739 
	C114.397873,192.916489 114.287987,203.527573 114.546211,214.129684 
	C114.576248,215.362518 116.418953,217.030212 117.803741,217.675232 
	C128.836807,222.814301 140.622757,224.774246 152.672455,225.070831 
	C168.016418,225.448502 182.913864,223.657242 196.558945,214.096481 
M254.485794,267.949005 
	C188.245209,267.949005 122.004608,267.949005 55.764019,267.949005 
	C55.764874,268.203186 55.765728,268.457367 55.766579,268.711548 
	C126.296097,268.711548 196.825607,268.711548 267.355133,268.711548 
	C267.357941,268.457397 267.360779,268.203247 267.363617,267.949097 
	C263.401825,267.949097 259.440063,267.949097 254.485794,267.949005 
M83.500000,24.056690 
	C74.568245,24.056690 65.636497,24.056690 56.704742,24.056690 
	C56.707958,24.301769 56.711170,24.546850 56.714382,24.791929 
	C126.902809,24.791929 197.091232,24.791929 267.279663,24.791929 
	C267.280029,24.546846 267.280396,24.301764 267.280792,24.056681 
	C206.353851,24.056681 145.426926,24.056681 83.500000,24.056690 
M34.043209,200.500000 
	C34.043209,215.790161 34.043209,231.080322 34.043209,246.370483 
	C34.277714,246.369003 34.512218,246.367538 34.746723,246.366058 
	C34.746723,179.796844 34.746723,113.227623 34.746723,46.658405 
	C34.512321,46.658085 34.277916,46.657764 34.043514,46.657444 
	C34.043514,97.604965 34.043514,148.552475 34.043209,200.500000 
M289.954803,126.500000 
	C289.954803,166.383804 289.954803,206.267624 289.954803,246.151428 
	C290.194153,246.149857 290.433502,246.148300 290.672852,246.146744 
	C290.672852,179.638107 290.672852,113.129471 290.672852,46.620834 
	C290.433563,46.620308 290.194275,46.619781 289.954987,46.619255 
	C289.954987,72.912834 289.954987,99.206421 289.954803,126.500000 
z"/>
<path fill="white" opacity="1.000000" stroke="none" 
	d="
M196.270355,214.312225 
	C182.913864,223.657242 168.016418,225.448502 152.672455,225.070831 
	C140.622757,224.774246 128.836807,222.814301 117.803741,217.675232 
	C116.418953,217.030212 114.576248,215.362518 114.546211,214.129684 
	C114.287987,203.527573 114.397873,192.916489 114.397873,181.919739 
	C121.674545,184.603729 128.275406,187.884628 135.259476,189.403198 
	C144.262207,191.360672 153.569305,191.927612 162.752823,193.030991 
	C163.716324,193.146759 164.778748,192.996994 165.712479,192.705322 
	C169.616394,191.485870 173.289719,189.922119 174.237259,185.293869 
	C175.230820,180.440872 172.773376,177.117020 168.888596,175.030548 
	C162.166168,171.420044 155.101013,168.445358 148.396301,164.804886 
	C141.700119,161.169006 134.682632,157.761444 128.843201,152.985596 
	C116.104912,142.567444 113.250374,128.265137 116.130043,112.806465 
	C119.048492,97.139595 129.580856,87.813385 144.243744,83.454590 
	C167.990143,76.395546 190.865280,80.415627 213.520187,90.285446 
	C209.503189,100.425011 205.615768,110.237503 201.805756,119.854584 
	C193.840790,117.317947 186.400284,114.374161 178.684967,112.687263 
	C173.281738,111.505867 167.407852,111.345001 161.931671,112.095863 
	C159.095108,112.484810 155.660873,115.330360 154.294617,117.989754 
	C152.365753,121.744278 155.116531,125.195908 158.479919,127.068665 
	C165.577896,131.020844 172.974960,134.432358 180.122849,138.299454 
	C186.539474,141.770935 193.288635,144.903976 199.018646,149.318680 
	C219.554077,165.140305 218.154343,197.381317 196.270355,214.312225 
z"/>




</svg>