<?xml version="1.0" encoding="UTF-8"?>
<svg xmlns="http://www.w3.org/2000/svg" xmlns:xlink="http://www.w3.org/1999/xlink" viewBox="0 0 100 100" width="100px" height="100px">
<g id="surface128003259">
<path style=" stroke:none;fill-rule:nonzero;fill:rgb(100%,100%,100%);fill-opacity:1;" d="M 50 30 C 61.046875 30 70 38.953125 70 50 C 70 61.046875 61.046875 70 50 70 C 38.953125 70 30 61.046875 30 50 C 30 38.953125 38.953125 30 50 30 Z M 51 9 C 51 9.351562 51 20.648438 51 21 C 51 21.550781 50.550781 22 50 22 C 49.449219 22 49 21.550781 49 21 C 49 20.648438 49 9.351562 49 9 C 49 8.449219 49.449219 8 50 8 C 50.550781 8 51 8.449219 51 9 Z M 79.699219 21.714844 C 79.449219 21.964844 71.460938 29.953125 71.210938 30.203125 C 70.820312 30.59375 70.1875 30.59375 69.796875 30.203125 C 69.40625 29.8125 69.40625 29.179688 69.796875 28.789062 C 70.046875 28.539062 78.035156 20.550781 78.285156 20.300781 C 78.675781 19.910156 79.308594 19.910156 79.699219 20.300781 C 80.089844 20.691406 80.089844 21.324219 79.699219 21.714844 Z M 91 51 C 90.648438 51 79.351562 51 79 51 C 78.449219 51 78 50.550781 78 50 C 78 49.449219 78.449219 49 79 49 C 79.351562 49 90.648438 49 91 49 C 91.550781 49 92 49.449219 92 50 C 92 50.550781 91.550781 51 91 51 Z M 78.285156 79.699219 C 78.035156 79.449219 70.046875 71.460938 69.796875 71.210938 C 69.40625 70.820312 69.40625 70.1875 69.796875 69.796875 C 70.1875 69.40625 70.820312 69.40625 71.210938 69.796875 C 71.460938 70.046875 79.449219 78.035156 79.699219 78.285156 C 80.089844 78.675781 80.089844 79.308594 79.699219 79.699219 C 79.308594 80.089844 78.675781 80.089844 78.285156 79.699219 Z M 49 91 C 49 90.648438 49 79.351562 49 79 C 49 78.449219 49.449219 78 50 78 C 50.550781 78 51 78.449219 51 79 C 51 79.351562 51 90.648438 51 91 C 51 91.550781 50.550781 92 50 92 C 49.449219 92 49 91.550781 49 91 Z M 20.300781 78.285156 C 20.550781 78.035156 28.539062 70.046875 28.789062 69.796875 C 29.179688 69.40625 29.8125 69.40625 30.203125 69.796875 C 30.59375 70.1875 30.59375 70.820312 30.203125 71.210938 C 29.953125 71.460938 21.964844 79.449219 21.714844 79.699219 C 21.324219 80.089844 20.691406 80.089844 20.300781 79.699219 C 19.910156 79.308594 19.910156 78.675781 20.300781 78.285156 Z M 9 49 C 9.351562 49 20.648438 49 21 49 C 21.550781 49 22 49.449219 22 50 C 22 50.550781 21.550781 51 21 51 C 20.648438 51 9.351562 51 9 51 C 8.449219 51 8 50.550781 8 50 C 8 49.449219 8.449219 49 9 49 Z M 21.714844 20.300781 C 21.964844 20.550781 29.953125 28.539062 30.203125 28.789062 C 30.59375 29.179688 30.59375 29.8125 30.203125 30.203125 C 29.8125 30.59375 29.179688 30.59375 28.789062 30.203125 C 28.539062 29.953125 20.550781 21.964844 20.300781 21.714844 C 19.910156 21.324219 19.910156 20.691406 20.300781 20.300781 C 20.691406 19.910156 21.324219 19.910156 21.714844 20.300781 Z M 21.714844 20.300781 "/>
</g>
</svg>
